<svg xmlns="http://www.w3.org/2000/svg" xmlns:xlink="http://www.w3.org/1999/xlink" width="2000" zoomAndPan="magnify" viewBox="0 0 1500 1499.999933" height="2000" preserveAspectRatio="xMidYMid meet" version="1.0"><defs><g/><clipPath id="07b5baed87"><path d="M 236.097656 236.871094 L 1263.597656 236.871094 L 1263.597656 521.871094 L 236.097656 521.871094 Z M 236.097656 236.871094 " clip-rule="nonzero"/></clipPath><clipPath id="e7f9554f49"><path d="M 236.097656 937.949219 L 1263.597656 937.949219 L 1263.597656 1263.390625 L 236.097656 1263.390625 Z M 236.097656 937.949219 " clip-rule="nonzero"/></clipPath><clipPath id="50c9c93358"><path d="M 63.300781 716.796875 L 236.550781 716.796875 L 236.550781 890.046875 L 63.300781 890.046875 Z M 63.300781 716.796875 " clip-rule="nonzero"/></clipPath><clipPath id="39aa024a16"><path d="M 1263.234375 716.796875 L 1436.484375 716.796875 L 1436.484375 890.046875 L 1263.234375 890.046875 Z M 1263.234375 716.796875 " clip-rule="nonzero"/></clipPath></defs><path fill="#000000" d="M 750 1500 C 336.578125 1500 0 1163.421875 0 750 C 0 336.578125 336.578125 0 750 0 C 1163.421875 0 1500 336.578125 1500 750 C 1500 1163.421875 1163.421875 1500 750 1500 Z M 750 11.082031 C 342.488281 11.082031 11.082031 342.488281 11.082031 750 C 11.082031 1157.511719 342.488281 1488.917969 750 1488.917969 C 1157.511719 1488.917969 1488.917969 1157.511719 1488.917969 750 C 1488.917969 342.488281 1157.511719 11.082031 750 11.082031 Z M 750 11.082031 " fill-opacity="1" fill-rule="nonzero"/><g clip-path="url(#07b5baed87)"><path fill="#000000" d="M 749.847656 1264.371094 C 466.652344 1264.371094 236.097656 1033.8125 236.097656 750.621094 C 236.097656 467.425781 466.652344 236.871094 749.847656 236.871094 C 1033.042969 236.871094 1263.597656 467.425781 1263.597656 750.621094 C 1263.597656 1033.8125 1033.042969 1264.371094 749.847656 1264.371094 Z M 749.847656 244.460938 C 470.699219 244.460938 243.6875 471.472656 243.6875 750.621094 C 243.6875 1029.765625 470.699219 1256.777344 749.847656 1256.777344 C 1028.992188 1256.777344 1256.003906 1029.765625 1256.003906 750.621094 C 1256.003906 471.472656 1028.992188 244.460938 749.847656 244.460938 Z M 749.847656 244.460938 " fill-opacity="1" fill-rule="nonzero"/></g><g clip-path="url(#e7f9554f49)"><path fill="#000000" d="M 749.847656 1263.390625 C 466.652344 1263.390625 236.097656 1032.832031 236.097656 749.640625 C 236.097656 466.445312 466.652344 235.890625 749.847656 235.890625 C 1033.042969 235.890625 1263.597656 466.445312 1263.597656 749.640625 C 1263.597656 1032.832031 1033.042969 1263.390625 749.847656 1263.390625 Z M 749.847656 243.480469 C 470.699219 243.480469 243.6875 470.492188 243.6875 749.640625 C 243.6875 1028.785156 470.699219 1255.796875 749.847656 1255.796875 C 1028.992188 1255.796875 1256.003906 1028.785156 1256.003906 749.640625 C 1256.003906 470.492188 1028.992188 243.480469 749.847656 243.480469 Z M 749.847656 243.480469 " fill-opacity="1" fill-rule="nonzero"/></g><path fill="#ffc8d7" d="M 801.5 660.609375 C 956.300781 392.484375 543.5 392.484375 698.300781 660.609375 C 543.5 392.484375 337.101562 749.980469 646.699219 749.980469 C 337.101562 749.980469 543.5 1107.476562 698.300781 839.355469 C 543.5 1107.480469 956.300781 1107.480469 801.5 839.355469 C 956.300781 1107.480469 1162.699219 749.980469 853.101562 749.980469 C 1162.703125 749.980469 956.300781 392.484375 801.5 660.609375 Z M 801.5 660.609375 " fill-opacity="1" fill-rule="nonzero"/><path fill="#ff1654" d="M 825.035156 749.980469 C 825.035156 751.210938 825.007812 752.441406 824.945312 753.667969 C 824.886719 754.898438 824.796875 756.121094 824.675781 757.347656 C 824.554688 758.570312 824.402344 759.789062 824.222656 761.007812 C 824.042969 762.222656 823.832031 763.433594 823.59375 764.640625 C 823.351562 765.847656 823.082031 767.046875 822.785156 768.238281 C 822.484375 769.429688 822.15625 770.617188 821.800781 771.792969 C 821.445312 772.96875 821.058594 774.136719 820.644531 775.292969 C 820.230469 776.453125 819.789062 777.597656 819.316406 778.734375 C 818.847656 779.871094 818.347656 780.996094 817.824219 782.105469 C 817.296875 783.21875 816.746094 784.316406 816.164062 785.402344 C 815.585938 786.484375 814.980469 787.554688 814.347656 788.609375 C 813.714844 789.664062 813.058594 790.703125 812.375 791.726562 C 811.691406 792.746094 810.984375 793.753906 810.25 794.738281 C 809.519531 795.726562 808.761719 796.695312 807.980469 797.648438 C 807.203125 798.597656 806.398438 799.527344 805.574219 800.441406 C 804.746094 801.351562 803.898438 802.242188 803.03125 803.109375 C 802.160156 803.980469 801.269531 804.828125 800.359375 805.652344 C 799.449219 806.480469 798.515625 807.28125 797.566406 808.0625 C 796.617188 808.84375 795.648438 809.597656 794.660156 810.332031 C 793.671875 811.0625 792.667969 811.773438 791.644531 812.453125 C 790.621094 813.136719 789.582031 813.796875 788.527344 814.425781 C 787.472656 815.058594 786.402344 815.664062 785.320312 816.246094 C 784.234375 816.824219 783.136719 817.378906 782.027344 817.902344 C 780.914062 818.429688 779.789062 818.925781 778.652344 819.398438 C 777.519531 819.867188 776.371094 820.3125 775.214844 820.726562 C 774.054688 821.140625 772.886719 821.523438 771.710938 821.882812 C 770.535156 822.238281 769.351562 822.566406 768.15625 822.867188 C 766.964844 823.164062 765.765625 823.433594 764.558594 823.671875 C 763.351562 823.914062 762.140625 824.125 760.925781 824.304688 C 759.710938 824.484375 758.488281 824.636719 757.265625 824.753906 C 756.042969 824.875 754.816406 824.964844 753.589844 825.027344 C 752.359375 825.085938 751.128906 825.117188 749.902344 825.117188 C 748.671875 825.117188 747.441406 825.085938 746.214844 825.027344 C 744.988281 824.964844 743.761719 824.875 742.535156 824.753906 C 741.3125 824.636719 740.09375 824.484375 738.875 824.304688 C 737.660156 824.125 736.449219 823.914062 735.242188 823.671875 C 734.035156 823.433594 732.835938 823.164062 731.644531 822.867188 C 730.453125 822.566406 729.265625 822.238281 728.089844 821.882812 C 726.914062 821.523438 725.746094 821.140625 724.589844 820.726562 C 723.429688 820.3125 722.285156 819.867188 721.148438 819.398438 C 720.011719 818.925781 718.886719 818.429688 717.777344 817.902344 C 716.664062 817.378906 715.566406 816.824219 714.484375 816.246094 C 713.398438 815.664062 712.328125 815.058594 711.273438 814.425781 C 710.21875 813.796875 709.179688 813.136719 708.160156 812.453125 C 707.136719 811.773438 706.128906 811.0625 705.144531 810.332031 C 704.15625 809.597656 703.1875 808.84375 702.234375 808.0625 C 701.285156 807.28125 700.355469 806.480469 699.445312 805.652344 C 698.53125 804.828125 697.640625 803.980469 696.773438 803.109375 C 695.902344 802.242188 695.054688 801.351562 694.230469 800.441406 C 693.402344 799.527344 692.601562 798.597656 691.820312 797.648438 C 691.039062 796.695312 690.285156 795.726562 689.550781 794.738281 C 688.820312 793.753906 688.113281 792.746094 687.429688 791.726562 C 686.746094 790.703125 686.085938 789.664062 685.457031 788.609375 C 684.824219 787.554688 684.21875 786.484375 683.636719 785.402344 C 683.058594 784.316406 682.503906 783.21875 681.980469 782.105469 C 681.453125 780.996094 680.957031 779.871094 680.484375 778.734375 C 680.015625 777.597656 679.570312 776.453125 679.15625 775.292969 C 678.742188 774.136719 678.359375 772.96875 678 771.792969 C 677.644531 770.617188 677.316406 769.429688 677.015625 768.238281 C 676.71875 767.046875 676.449219 765.847656 676.210938 764.640625 C 675.96875 763.433594 675.757812 762.222656 675.578125 761.007812 C 675.398438 759.789062 675.25 758.570312 675.128906 757.347656 C 675.007812 756.121094 674.917969 754.898438 674.855469 753.667969 C 674.796875 752.441406 674.765625 751.210938 674.765625 749.980469 C 674.765625 748.753906 674.796875 747.523438 674.855469 746.296875 C 674.917969 745.066406 675.007812 743.839844 675.128906 742.617188 C 675.25 741.394531 675.398438 740.171875 675.578125 738.957031 C 675.757812 737.742188 675.96875 736.53125 676.210938 735.324219 C 676.449219 734.117188 676.71875 732.917969 677.015625 731.726562 C 677.316406 730.53125 677.644531 729.347656 678 728.171875 C 678.359375 726.996094 678.742188 725.828125 679.15625 724.667969 C 679.570312 723.511719 680.015625 722.363281 680.484375 721.230469 C 680.957031 720.09375 681.453125 718.96875 681.980469 717.859375 C 682.503906 716.746094 683.058594 715.648438 683.636719 714.5625 C 684.21875 713.480469 684.824219 712.410156 685.457031 711.355469 C 686.085938 710.300781 686.746094 709.261719 687.429688 708.238281 C 688.113281 707.214844 688.820312 706.210938 689.550781 705.222656 C 690.285156 704.234375 691.039062 703.265625 691.820312 702.316406 C 692.601562 701.367188 693.402344 700.433594 694.230469 699.523438 C 695.054688 698.613281 695.902344 697.722656 696.773438 696.851562 C 697.640625 695.984375 698.53125 695.136719 699.445312 694.308594 C 700.355469 693.484375 701.285156 692.683594 702.234375 691.902344 C 703.1875 691.121094 704.15625 690.367188 705.144531 689.632812 C 706.128906 688.898438 707.136719 688.191406 708.160156 687.507812 C 709.179688 686.824219 710.21875 686.167969 711.273438 685.535156 C 712.328125 684.902344 713.398438 684.296875 714.484375 683.71875 C 715.566406 683.140625 716.664062 682.585938 717.777344 682.058594 C 718.886719 681.535156 720.011719 681.035156 721.148438 680.566406 C 722.285156 680.09375 723.429688 679.652344 724.589844 679.238281 C 725.746094 678.824219 726.914062 678.4375 728.089844 678.082031 C 729.265625 677.726562 730.453125 677.398438 731.644531 677.097656 C 732.835938 676.800781 734.035156 676.53125 735.242188 676.289062 C 736.449219 676.050781 737.660156 675.839844 738.875 675.660156 C 740.09375 675.480469 741.3125 675.328125 742.535156 675.207031 C 743.761719 675.089844 744.988281 674.996094 746.214844 674.9375 C 747.441406 674.875 748.671875 674.847656 749.902344 674.847656 C 751.128906 674.847656 752.359375 674.875 753.589844 674.9375 C 754.816406 674.996094 756.042969 675.089844 757.265625 675.207031 C 758.488281 675.328125 759.710938 675.480469 760.925781 675.660156 C 762.140625 675.839844 763.351562 676.050781 764.558594 676.289062 C 765.765625 676.53125 766.964844 676.800781 768.15625 677.097656 C 769.351562 677.398438 770.535156 677.726562 771.710938 678.082031 C 772.886719 678.4375 774.054688 678.824219 775.214844 679.238281 C 776.371094 679.652344 777.519531 680.09375 778.652344 680.566406 C 779.789062 681.035156 780.914062 681.535156 782.027344 682.058594 C 783.136719 682.585938 784.234375 683.140625 785.320312 683.71875 C 786.402344 684.296875 787.472656 684.902344 788.527344 685.535156 C 789.582031 686.167969 790.621094 686.824219 791.644531 687.507812 C 792.667969 688.191406 793.671875 688.898438 794.660156 689.632812 C 795.648438 690.367188 796.617188 691.121094 797.566406 691.902344 C 798.515625 692.683594 799.449219 693.484375 800.359375 694.308594 C 801.269531 695.136719 802.160156 695.984375 803.03125 696.851562 C 803.898438 697.722656 804.746094 698.613281 805.574219 699.523438 C 806.398438 700.433594 807.203125 701.367188 807.980469 702.316406 C 808.761719 703.265625 809.519531 704.234375 810.25 705.222656 C 810.984375 706.210938 811.691406 707.214844 812.375 708.238281 C 813.058594 709.261719 813.714844 710.300781 814.347656 711.355469 C 814.980469 712.410156 815.585938 713.480469 816.164062 714.5625 C 816.746094 715.648438 817.296875 716.746094 817.824219 717.859375 C 818.347656 718.96875 818.847656 720.09375 819.316406 721.230469 C 819.789062 722.363281 820.230469 723.511719 820.644531 724.667969 C 821.058594 725.828125 821.445312 726.996094 821.800781 728.171875 C 822.15625 729.347656 822.484375 730.53125 822.785156 731.726562 C 823.082031 732.917969 823.351562 734.117188 823.59375 735.324219 C 823.832031 736.53125 824.042969 737.742188 824.222656 738.957031 C 824.402344 740.171875 824.554688 741.394531 824.675781 742.617188 C 824.796875 743.839844 824.886719 745.066406 824.945312 746.296875 C 825.007812 747.523438 825.035156 748.753906 825.035156 749.980469 Z M 825.035156 749.980469 " fill-opacity="1" fill-rule="nonzero"/><g clip-path="url(#50c9c93358)"><path fill="#ff1654" d="M 150.03125 716.796875 C 141.578125 788.222656 134.726562 795.074219 63.300781 803.527344 C 63.449219 803.546875 63.59375 803.5625 63.742188 803.582031 L 63.746094 803.582031 C 134.75 812.011719 141.597656 818.984375 150.03125 890.257812 C 158.484375 818.832031 165.335938 811.980469 236.761719 803.527344 C 165.335938 795.074219 158.484375 788.222656 150.03125 716.796875 Z M 150.03125 716.796875 " fill-opacity="1" fill-rule="nonzero"/></g><g clip-path="url(#39aa024a16)"><path fill="#ff1654" d="M 1349.964844 716.796875 C 1341.511719 788.222656 1334.65625 795.074219 1263.234375 803.527344 C 1263.382812 803.546875 1263.527344 803.5625 1263.675781 803.582031 L 1263.679688 803.582031 C 1334.683594 812.011719 1341.527344 818.984375 1349.964844 890.257812 C 1358.417969 818.832031 1365.269531 811.980469 1436.695312 803.527344 C 1365.269531 795.074219 1358.417969 788.222656 1349.964844 716.796875 Z M 1349.964844 716.796875 " fill-opacity="1" fill-rule="nonzero"/></g><g fill="#000000" fill-opacity="1"><g transform="translate(190.044173, 580.519808)"><g><path d="M 9.296875 -27.953125 C 8.304688 -24.617188 6.796875 -21.632812 4.765625 -19 C 2.734375 -16.375 0.253906 -14.273438 -2.671875 -12.703125 C -5.597656 -11.140625 -8.9375 -10.203125 -12.6875 -9.890625 C -16.445312 -9.585938 -20.535156 -10.085938 -24.953125 -11.390625 C -29.328125 -12.679688 -33.023438 -14.503906 -36.046875 -16.859375 C -39.078125 -19.222656 -41.445312 -21.890625 -43.15625 -24.859375 C -44.863281 -27.828125 -45.890625 -31.003906 -46.234375 -34.390625 C -46.585938 -37.785156 -46.273438 -41.148438 -45.296875 -44.484375 C -44.296875 -47.878906 -42.707031 -50.722656 -40.53125 -53.015625 C -38.363281 -55.304688 -36.097656 -57.070312 -33.734375 -58.3125 L -28 -49.765625 C -29.632812 -48.785156 -31.0625 -47.664062 -32.28125 -46.40625 C -33.5 -45.15625 -34.382812 -43.582031 -34.9375 -41.6875 C -35.457031 -39.914062 -35.5625 -38.117188 -35.25 -36.296875 C -34.9375 -34.484375 -34.222656 -32.78125 -33.109375 -31.1875 C -31.992188 -29.59375 -30.484375 -28.148438 -28.578125 -26.859375 C -26.671875 -25.566406 -24.394531 -24.53125 -21.75 -23.75 C -16.300781 -22.144531 -11.738281 -22.0625 -8.0625 -23.5 C -4.394531 -24.9375 -1.988281 -27.597656 -0.84375 -31.484375 C -0.207031 -33.640625 -0.109375 -35.703125 -0.546875 -37.671875 C -0.992188 -39.648438 -1.722656 -41.492188 -2.734375 -43.203125 L 6.5625 -47.3125 C 10.4375 -41.375 11.347656 -34.921875 9.296875 -27.953125 Z M 9.296875 -27.953125 "/></g></g></g><g fill="#000000" fill-opacity="1"><g transform="translate(224.338182, 482.199091)"><g><path d="M -16.046875 -29.90625 L -12.140625 -26.40625 L -6.828125 -36.875 L -11.921875 -38.015625 C -14.734375 -38.566406 -17.679688 -39.21875 -20.765625 -39.96875 C -23.859375 -40.71875 -26.847656 -41.410156 -29.734375 -42.046875 L -29.890625 -41.75 C -27.597656 -39.820312 -25.238281 -37.847656 -22.8125 -35.828125 C -20.394531 -33.816406 -18.140625 -31.84375 -16.046875 -29.90625 Z M -0.21875 0.453125 L -41.484375 -39.78125 L -34.734375 -53.109375 L 22.109375 -43.5625 L 16.15625 -31.828125 L 2.96875 -34.734375 L -4.640625 -19.75 L 5.5 -10.828125 Z M -0.21875 0.453125 "/></g></g></g><g fill="#000000" fill-opacity="1"><g transform="translate(275.65467, 392.34251)"><g><path d="M 3.921875 -5.1875 L -39.921875 -38.40625 L -18.984375 -66.03125 L -10.640625 -59.71875 L -24.09375 -41.96875 L -13.9375 -34.265625 L -2.421875 -49.46875 L 5.90625 -43.15625 L -5.609375 -27.953125 L 11.40625 -15.0625 Z M 3.921875 -5.1875 "/></g></g></g><g fill="#000000" fill-opacity="1"><g transform="translate(339.430822, 316.120089)"><g><path d="M 4.78125 -4.40625 L -32.53125 -44.828125 L -7.25 -68.171875 L -0.15625 -60.484375 L -16.34375 -45.546875 L -8.84375 -37.421875 L 4.921875 -50.125 L 11.96875 -42.5 L -1.796875 -29.796875 L 6.78125 -20.5 L 23.59375 -36.015625 L 30.6875 -28.328125 Z M 4.78125 -4.40625 "/></g></g></g><g fill="#000000" fill-opacity="1"><g transform="translate(417.836544, 251.087578)"><g/></g></g><g fill="#000000" fill-opacity="1"><g transform="translate(479.329699, 213.007081)"><g><path d="M 5.921875 -2.671875 L -16.625 -52.828125 L -4.234375 -58.390625 L 13.875 -39.703125 C 15.050781 -38.453125 16.222656 -37.148438 17.390625 -35.796875 C 18.554688 -34.441406 19.738281 -33.109375 20.9375 -31.796875 L 21.25 -31.9375 C 21.070312 -33.71875 20.847656 -35.484375 20.578125 -37.234375 C 20.304688 -38.992188 20.097656 -40.726562 19.953125 -42.4375 L 17.84375 -68.3125 L 30.15625 -73.84375 L 52.703125 -23.6875 L 42.390625 -19.0625 L 34.125 -37.453125 C 33.570312 -38.679688 33.007812 -40.0625 32.4375 -41.59375 C 31.875 -43.125 31.332031 -44.679688 30.8125 -46.265625 C 30.289062 -47.859375 29.773438 -49.414062 29.265625 -50.9375 C 28.765625 -52.46875 28.304688 -53.882812 27.890625 -55.1875 L 27.59375 -55.046875 L 28.890625 -41.296875 L 30.359375 -18.921875 L 24.109375 -16.109375 L 8.34375 -32.0625 L -1.03125 -42.171875 L -1.328125 -42.046875 C -0.617188 -40.878906 0.140625 -39.597656 0.953125 -38.203125 C 1.765625 -36.816406 2.585938 -35.398438 3.421875 -33.953125 C 4.253906 -32.515625 5.054688 -31.070312 5.828125 -29.625 C 6.597656 -28.1875 7.257812 -26.851562 7.8125 -25.625 L 16.078125 -7.234375 Z M 5.921875 -2.671875 "/></g></g></g><g fill="#000000" fill-opacity="1"><g transform="translate(590.25306, 169.881081)"><g><path d="M 12.65625 -31.484375 L 12.453125 -26.265625 L 23.890625 -28.890625 L 21.53125 -33.53125 C 20.132812 -36.039062 18.734375 -38.71875 17.328125 -41.5625 C 15.929688 -44.414062 14.554688 -47.15625 13.203125 -49.78125 L 12.859375 -49.703125 C 12.859375 -46.710938 12.859375 -43.644531 12.859375 -40.5 C 12.859375 -37.351562 12.789062 -34.347656 12.65625 -31.484375 Z M -0.484375 0.109375 L 3.921875 -57.34375 L 18.46875 -60.703125 L 47.59375 -10.984375 L 34.78125 -8.015625 L 28.546875 -20.015625 L 12.1875 -16.234375 L 11.828125 -2.734375 Z M -0.484375 0.109375 "/></g></g></g><g fill="#000000" fill-opacity="1"><g transform="translate(691.871253, 151.393003)"><g><path d="M 6.5 -0.25 L 4.421875 -55.203125 L 17.140625 -55.6875 L 32.5 -28.921875 L 38.34375 -16.96875 L 38.6875 -16.984375 C 38.300781 -19.898438 37.859375 -23.148438 37.359375 -26.734375 C 36.859375 -30.316406 36.546875 -33.734375 36.421875 -36.984375 L 35.6875 -56.375 L 47.5 -56.828125 L 49.578125 -1.875 L 36.828125 -1.390625 L 21.484375 -28.25 L 15.625 -40 L 15.28125 -40 C 15.675781 -36.976562 16.125 -33.726562 16.625 -30.25 C 17.125 -26.78125 17.4375 -23.414062 17.5625 -20.15625 L 18.296875 -0.6875 Z M 6.5 -0.25 "/></g></g></g><g fill="#000000" fill-opacity="1"><g transform="translate(802.866374, 152.750036)"><g><path d="M 23.375 -24.609375 L 21.265625 -19.796875 L 32.859375 -18.03125 L 32.375 -23.234375 C 32.007812 -26.078125 31.695312 -29.082031 31.4375 -32.25 C 31.1875 -35.414062 30.914062 -38.46875 30.625 -41.40625 L 30.296875 -41.46875 C 29.179688 -38.675781 28.046875 -35.816406 26.890625 -32.890625 C 25.734375 -29.972656 24.5625 -27.210938 23.375 -24.609375 Z M -0.5 -0.078125 L 24.796875 -51.859375 L 39.5625 -49.609375 L 48.28125 7.34375 L 35.28125 5.375 L 33.90625 -8.0625 L 17.3125 -10.59375 L 12 1.828125 Z M -0.5 -0.078125 "/></g></g></g><g fill="#000000" fill-opacity="1"><g transform="translate(904.159707, 173.116554)"><g><path d="M 28.703125 11.171875 C 25.148438 9.921875 22.019531 8.175781 19.3125 5.9375 C 16.613281 3.707031 14.515625 1.078125 13.015625 -1.953125 C 11.523438 -4.984375 10.710938 -8.382812 10.578125 -12.15625 C 10.441406 -15.9375 11.132812 -20 12.65625 -24.34375 C 14.175781 -28.644531 16.191406 -32.242188 18.703125 -35.140625 C 21.210938 -38.035156 24.03125 -40.242188 27.15625 -41.765625 C 30.289062 -43.296875 33.609375 -44.128906 37.109375 -44.265625 C 40.617188 -44.410156 44.097656 -43.875 47.546875 -42.65625 C 51.316406 -41.332031 54.3125 -39.503906 56.53125 -37.171875 C 58.75 -34.847656 60.398438 -32.507812 61.484375 -30.15625 L 52.734375 -24.84375 C 51.804688 -26.46875 50.738281 -27.9375 49.53125 -29.25 C 48.320312 -30.570312 46.601562 -31.625 44.375 -32.40625 C 42.363281 -33.113281 40.390625 -33.378906 38.453125 -33.203125 C 36.515625 -33.023438 34.679688 -32.429688 32.953125 -31.421875 C 31.234375 -30.410156 29.675781 -28.988281 28.28125 -27.15625 C 26.894531 -25.320312 25.742188 -23.101562 24.828125 -20.5 C 22.953125 -15.144531 22.703125 -10.570312 24.078125 -6.78125 C 25.453125 -2.988281 28.582031 -0.238281 33.46875 1.46875 C 34.53125 1.84375 35.609375 2.070312 36.703125 2.15625 C 37.804688 2.25 38.769531 2.144531 39.59375 1.84375 L 42.71875 -7.078125 L 34.125 -10.109375 L 37.484375 -19.640625 L 56.421875 -12.984375 L 48.03125 10.875 C 45.613281 12 42.703125 12.648438 39.296875 12.828125 C 35.890625 13.003906 32.359375 12.453125 28.703125 11.171875 Z M 28.703125 11.171875 "/></g></g></g><g fill="#000000" fill-opacity="1"><g transform="translate(1004.876632, 214.282067)"><g><path d="M 5.625 3.25 L 33.109375 -44.390625 L 62.9375 -27.1875 L 57.703125 -18.140625 L 38.609375 -29.15625 L 33.09375 -19.5625 L 49.328125 -10.203125 L 44.140625 -1.21875 L 27.90625 -10.578125 L 21.578125 0.375 L 41.390625 11.8125 L 36.171875 20.875 Z M 5.625 3.25 "/></g></g></g><g fill="#000000" fill-opacity="1"><g transform="translate(1090.142751, 268.612867)"><g><path d="M 4.90625 4.265625 L 41.0625 -37.1875 L 51.28125 -28.25 L 41.875 -4 C 41.226562 -2.394531 40.535156 -0.78125 39.796875 0.84375 C 39.054688 2.46875 38.335938 4.097656 37.640625 5.734375 L 37.90625 5.953125 C 39.4375 5.054688 40.941406 4.117188 42.421875 3.140625 C 43.910156 2.160156 45.398438 1.238281 46.890625 0.375 L 69.53125 -12.34375 L 79.703125 -3.46875 L 43.546875 37.984375 L 35.03125 30.546875 L 48.28125 15.359375 C 49.164062 14.335938 50.1875 13.25 51.34375 12.09375 C 52.5 10.9375 53.6875 9.789062 54.90625 8.65625 C 56.132812 7.519531 57.335938 6.398438 58.515625 5.296875 C 59.691406 4.203125 60.785156 3.195312 61.796875 2.28125 L 61.546875 2.078125 L 49.59375 9 L 29.859375 19.671875 L 24.703125 15.171875 L 32.609375 -5.8125 L 37.890625 -18.5625 L 37.640625 -18.78125 C 36.878906 -17.644531 36.035156 -16.414062 35.109375 -15.09375 C 34.179688 -13.78125 33.234375 -12.441406 32.265625 -11.078125 C 31.304688 -9.710938 30.332031 -8.378906 29.34375 -7.078125 C 28.351562 -5.785156 27.414062 -4.628906 26.53125 -3.609375 L 13.28125 11.578125 Z M 4.90625 4.265625 "/></g></g></g><g fill="#000000" fill-opacity="1"><g transform="translate(1175.676157, 351.406216)"><g><path d="M 3.984375 5.140625 L 47.453125 -28.5625 L 68.546875 -1.359375 L 60.28125 5.046875 L 46.78125 -12.375 L 38.046875 -5.59375 L 49.53125 9.21875 L 41.328125 15.578125 L 29.84375 0.765625 L 19.84375 8.515625 L 33.859375 26.59375 L 25.59375 33 Z M 3.984375 5.140625 "/></g></g></g><g fill="#000000" fill-opacity="1"><g transform="translate(1233.939888, 434.17131)"><g><path d="M 2.953125 5.78125 L 51.921875 -19.25 L 57.71875 -7.90625 L 39.921875 17.3125 L 31.546875 27.640625 L 31.703125 27.9375 C 34.179688 26.351562 36.941406 24.582031 39.984375 22.625 C 43.023438 20.664062 45.992188 18.941406 48.890625 17.453125 L 66.171875 8.625 L 71.546875 19.140625 L 22.578125 44.171875 L 16.78125 32.828125 L 34.671875 7.578125 L 42.875 -2.671875 L 42.71875 -2.984375 C 40.144531 -1.359375 37.382812 0.410156 34.4375 2.328125 C 31.5 4.253906 28.578125 5.960938 25.671875 7.453125 L 8.328125 16.3125 Z M 2.953125 5.78125 "/></g></g></g><g fill="#000000" fill-opacity="1"><g transform="translate(1279.409498, 535.478249)"><g><path d="M 4.828125 16.515625 L 47.578125 4 L 43.34375 -10.484375 L 53.375 -13.421875 L 65.375 27.53125 L 55.34375 30.46875 L 51.09375 15.96875 L 8.34375 28.484375 Z M 4.828125 16.515625 "/></g></g></g><g fill="#000000" fill-opacity="1"><g transform="translate(295.555107, 1215.908116)"><g><path d="M 20.15625 21.484375 C 17.6875 19.023438 15.78125 16.273438 14.4375 13.234375 C 13.101562 10.203125 12.441406 7.023438 12.453125 3.703125 C 12.460938 0.378906 13.226562 -3.003906 14.75 -6.453125 C 16.269531 -9.898438 18.65625 -13.253906 21.90625 -16.515625 C 25.125 -19.753906 28.488281 -22.140625 32 -23.671875 C 35.507812 -25.210938 38.972656 -26.023438 42.390625 -26.109375 C 45.816406 -26.203125 49.101562 -25.59375 52.25 -24.28125 C 55.394531 -22.976562 58.203125 -21.097656 60.671875 -18.640625 C 63.179688 -16.140625 64.925781 -13.394531 65.90625 -10.40625 C 66.894531 -7.414062 67.375 -4.582031 67.34375 -1.90625 L 57.078125 -0.9375 C 57.003906 -2.84375 56.703125 -4.628906 56.171875 -6.296875 C 55.648438 -7.960938 54.691406 -9.488281 53.296875 -10.875 C 51.984375 -12.175781 50.453125 -13.125 48.703125 -13.71875 C 46.953125 -14.320312 45.113281 -14.507812 43.1875 -14.28125 C 41.257812 -14.050781 39.269531 -13.40625 37.21875 -12.34375 C 35.175781 -11.289062 33.179688 -9.785156 31.234375 -7.828125 C 27.222656 -3.804688 24.972656 0.160156 24.484375 4.078125 C 24.003906 8.003906 25.203125 11.394531 28.078125 14.25 C 29.671875 15.832031 31.441406 16.898438 33.390625 17.453125 C 35.335938 18.003906 37.304688 18.238281 39.296875 18.15625 L 38.484375 28.28125 C 31.410156 28.863281 25.300781 26.597656 20.15625 21.484375 Z M 20.15625 21.484375 "/></g></g></g><g fill="#000000" fill-opacity="1"><g transform="translate(378.968457, 1290.613531)"><g><path d="M 5.359375 3.6875 L 36.5625 -41.59375 L 65.109375 -21.921875 L 59.1875 -13.328125 L 40.84375 -25.96875 L 33.609375 -15.46875 L 49.3125 -4.640625 L 43.375 3.96875 L 27.671875 -6.859375 L 15.5625 10.71875 Z M 5.359375 3.6875 "/></g></g></g><g fill="#000000" fill-opacity="1"><g transform="translate(469.782738, 1346.187195)"><g/></g></g><g fill="#000000" fill-opacity="1"><g transform="translate(542.837035, 1377.92005)"><g><path d="M 6.25 1.8125 L 21.5625 -51.015625 L 34.59375 -47.234375 L 36.296875 -21.265625 C 36.390625 -19.546875 36.4375 -17.789062 36.4375 -16 C 36.445312 -14.21875 36.488281 -12.4375 36.5625 -10.65625 L 36.890625 -10.5625 C 37.898438 -12.03125 38.867188 -13.519531 39.796875 -15.03125 C 40.734375 -16.550781 41.695312 -18.015625 42.6875 -19.421875 L 57.84375 -40.5 L 70.8125 -36.734375 L 55.5 16.09375 L 44.640625 12.9375 L 50.25 -6.421875 C 50.625 -7.722656 51.09375 -9.140625 51.65625 -10.671875 C 52.226562 -12.203125 52.820312 -13.742188 53.4375 -15.296875 C 54.0625 -16.847656 54.675781 -18.367188 55.28125 -19.859375 C 55.894531 -21.347656 56.46875 -22.71875 57 -23.96875 L 56.6875 -24.0625 L 48.75 -12.75 L 35.375 5.234375 L 28.8125 3.34375 L 27.109375 -19.015625 L 26.546875 -32.796875 L 26.21875 -32.890625 C 26.007812 -31.546875 25.757812 -30.082031 25.46875 -28.5 C 25.1875 -26.914062 24.894531 -25.300781 24.59375 -23.65625 C 24.300781 -22.007812 23.976562 -20.390625 23.625 -18.796875 C 23.269531 -17.203125 22.90625 -15.753906 22.53125 -14.453125 L 16.921875 4.90625 Z M 6.25 1.8125 "/></g></g></g><g fill="#000000" fill-opacity="1"><g transform="translate(667.003439, 1406.62044)"><g><path d="M 6.46875 0.578125 L 11.3125 -54.203125 L 45.609375 -51.171875 L 44.6875 -40.765625 L 22.734375 -42.71875 L 21.765625 -31.703125 L 40.4375 -30.046875 L 39.515625 -19.703125 L 20.84375 -21.359375 L 19.734375 -8.75 L 42.53125 -6.734375 L 41.609375 3.671875 Z M 6.46875 0.578125 "/></g></g></g><g fill="#000000" fill-opacity="1"><g transform="translate(776.238249, 1410.814226)"><g><path d="M 6.46875 -0.640625 L 1.03125 -55.375 L 13.703125 -56.640625 L 30.671875 -30.84375 L 37.25 -19.28125 L 37.59375 -19.328125 C 37.019531 -22.210938 36.375 -25.425781 35.65625 -28.96875 C 34.9375 -32.507812 34.414062 -35.90625 34.09375 -39.15625 L 32.171875 -58.46875 L 43.921875 -59.640625 L 49.359375 -4.90625 L 36.671875 -3.640625 L 19.71875 -29.5 L 13.15625 -40.890625 L 12.8125 -40.859375 C 13.394531 -37.867188 14.039062 -34.65625 14.75 -31.21875 C 15.457031 -27.78125 15.972656 -24.441406 16.296875 -21.203125 L 18.21875 -1.8125 Z M 6.46875 -0.640625 "/></g></g></g><g fill="#000000" fill-opacity="1"><g transform="translate(893.990603, 1392.735622)"><g><path d="M 6.234375 -1.828125 L -9.28125 -54.59375 L 23.75 -64.3125 L 26.703125 -54.28125 L 5.5625 -48.0625 L 8.671875 -37.453125 L 26.640625 -42.734375 L 29.578125 -32.78125 L 11.609375 -27.5 L 15.171875 -15.359375 L 37.109375 -21.8125 L 40.0625 -11.78125 Z M 6.234375 -1.828125 "/></g></g></g><g fill="#000000" fill-opacity="1"><g transform="translate(997.136586, 1356.67683)"><g><path d="M 27.90625 -13.078125 C 24.550781 -11.359375 21.128906 -10.289062 17.640625 -9.875 C 14.160156 -9.457031 10.804688 -9.753906 7.578125 -10.765625 C 4.347656 -11.773438 1.320312 -13.535156 -1.5 -16.046875 C -4.320312 -18.554688 -6.78125 -21.863281 -8.875 -25.96875 C -10.945312 -30.03125 -12.164062 -33.96875 -12.53125 -37.78125 C -12.894531 -41.59375 -12.550781 -45.15625 -11.5 -48.46875 C -10.445312 -51.789062 -8.757812 -54.769531 -6.4375 -57.40625 C -4.113281 -60.039062 -1.320312 -62.1875 1.9375 -63.84375 C 5.5 -65.65625 8.882812 -66.5625 12.09375 -66.5625 C 15.3125 -66.5625 18.144531 -66.140625 20.59375 -65.296875 L 18.40625 -55.3125 C 16.59375 -55.757812 14.789062 -56 13 -56.03125 C 11.21875 -56.070312 9.273438 -55.554688 7.171875 -54.484375 C 5.265625 -53.515625 3.707031 -52.265625 2.5 -50.734375 C 1.289062 -49.210938 0.457031 -47.476562 0 -45.53125 C -0.46875 -43.59375 -0.515625 -41.488281 -0.140625 -39.21875 C 0.234375 -36.945312 1.046875 -34.582031 2.296875 -32.125 C 4.867188 -27.0625 8.003906 -23.71875 11.703125 -22.09375 C 15.398438 -20.476562 19.550781 -20.84375 24.15625 -23.1875 C 25.164062 -23.695312 26.082031 -24.320312 26.90625 -25.0625 C 27.726562 -25.800781 28.3125 -26.578125 28.65625 -27.390625 L 24.359375 -35.8125 L 16.234375 -31.671875 L 11.65625 -40.671875 L 29.546875 -49.78125 L 41.03125 -27.25 C 40.164062 -24.726562 38.625 -22.175781 36.40625 -19.59375 C 34.195312 -17.007812 31.363281 -14.835938 27.90625 -13.078125 Z M 27.90625 -13.078125 "/></g></g></g><g fill="#000000" fill-opacity="1"><g transform="translate(1098.275044, 1298.220477)"><g><path d="M 5.15625 -3.96875 L -28.40625 -47.546875 L -1.140625 -68.546875 L 5.234375 -60.265625 L -12.21875 -46.828125 L -5.46875 -38.0625 L 9.375 -49.484375 L 15.703125 -41.265625 L 0.859375 -29.84375 L 8.59375 -19.8125 L 26.71875 -33.765625 L 33.09375 -25.484375 Z M 5.15625 -3.96875 "/></g></g></g><g fill="#000000" fill-opacity="1"><g transform="translate(1180.508765, 1227.395567)"><g/></g></g></svg>